<?xml version="1.0" standalone="no"?><!DOCTYPE svg PUBLIC "-//W3C//DTD SVG 1.1//EN" "http://www.w3.org/Graphics/SVG/1.1/DTD/svg11.dtd"><svg t="1588604413816" class="icon" viewBox="0 0 1024 1024" version="1.1" xmlns="http://www.w3.org/2000/svg" p-id="225828" width="32" height="32" xmlns:xlink="http://www.w3.org/1999/xlink"><defs><style type="text/css"></style></defs><path d="M1023.715989 770.219752c-3.375338-36.964446-20.934806-70.420712-49.453052-94.179489-28.512532-23.79163-64.664212-34.841826-101.567236-31.616471-1.69124 0.151412-3.36391 0.442808-5.010869 0.875617l-225.91193 57.689275c-13.759893-33.259145-44.225064-58.540609-82.022274-63.662894l-268.998549-41.509653c-27.759759-3.59817-55.116706 3.509608-77.374222 20.440575-12.705725 9.673206-22.848878 21.850418-29.89095 35.680304l-144.326749-32.829193c-17.185225-4.100971-34.431871 6.852092-38.344292 24.131592-3.943846 17.248075 6.857806 34.4333 24.133021 38.344292l172.809285 39.342752c8.733311 2.064055 17.966566 0.217119 25.354313-4.882312a32.127843 32.127843 0 0 0 13.519919-22.034684c1.445553-10.707376 6.980649-20.2206 15.589689-26.758442 8.576186-6.544984 19.06073-9.328959 29.326727-7.986251l268.999978 41.509652c22.128959 3.001094 37.685794 23.411673 34.683272 45.50635-3.006807 22.103247-23.413101 37.687222-45.296374 34.713269L280.673203 745.902466c-17.430912-2.409731-33.74052 9.671778-36.278808 27.202679-2.499721 17.526615 9.674635 33.769088 27.20125 36.274522l259.513894 37.121572c4.65948 0.624216 9.357527 0.93561 14.055574 0.942752 47.818949 0 90.028524-32.92204 101.501529-79.561121l234.198147-59.787613c19.093583-1.219864 37.624372 4.882312 52.365584 17.213793 9.451802 7.856266 16.683852 17.715166 21.253343 28.765361l-416.360674 175.280438a31.886441 31.886441 0 0 0-14.7255 12.554313c-31.832162 24.332999-77.664189 21.978976-106.756656-7.110635a32.072135 32.072135 0 0 0-5.122286-4.168106 31.827876 31.827876 0 0 0-14.468385-7.597724L39.188726 841.273251c-17.213793-4.039549-34.46044 6.823524-38.37286 24.098739-3.943846 17.246647 6.852092 34.430443 24.098739 38.377145l350.235197 80.013927c27.809753 25.87854 63.357215 38.868519 98.928959 38.868519 35.207499 0 70.404999-12.711438 98.107622-38.060038l432.03321-181.893985c12.861422-5.413682 20.75197-18.557929 19.496396-32.457806z" fill="#ffffff" p-id="225829"></path><path d="M340.175134 324.846602h-0.032853c-17.682312 0-32.04928 14.334114-32.049281 32.02214 0 17.715166 14.334114 32.083562 32.020712 32.083562l143.086888 0.111417-0.105703 111.783238c-0.032853 17.716594 14.306975 32.050709 32.022141 32.083562h0.028568c17.688026 0 32.02214-14.334114 32.050709-32.02214l0.111416-111.794666 143.058319 0.11713h0.032854c17.682312 0 32.050709-14.334114 32.050708-32.022141 0-17.715166-14.334114-32.083562-32.016426-32.083562l-143.064033-0.111416 0.072849-72.107666 142.925477 0.10713h0.032853c17.682312 0 32.050709-14.341257 32.050709-32.02214 0-17.716594-14.334114-32.083562-32.016427-32.083562l-109.072112-0.078563 114.11155-135.921973c11.394443-13.554202 9.641781-33.774802-3.945274-45.134962-13.525633-11.365874-33.774802-9.641781-45.134963 3.945274l-128.445665 152.995781L389.506771 11.717264c-11.333021-13.587055-31.582189-15.311148-45.134962-3.945274-13.587055 11.360161-15.338288 31.580761-3.945274 45.134962l114.032987 135.831983-114.284388-0.082848h-0.032853c-17.682312 0-32.04928 14.334114-32.049281 32.022141 0 17.715166 14.334114 32.083562 32.020712 32.083562l143.221159 0.099989-0.067136 72.101953-143.092601-0.11713z" fill="#ffffff" p-id="225830"></path></svg>