<?xml version="1.0" standalone="no"?><!DOCTYPE svg PUBLIC "-//W3C//DTD SVG 1.1//EN" "http://www.w3.org/Graphics/SVG/1.1/DTD/svg11.dtd"><svg t="1559915383424" class="icon" style="" viewBox="0 0 1024 1024" version="1.1" xmlns="http://www.w3.org/2000/svg" p-id="4688" xmlns:xlink="http://www.w3.org/1999/xlink" width="32" height="32"><defs><style type="text/css"></style></defs><path d="M475.6 460m-132 0a132 132 0 1 0 264 0 132 132 0 1 0-264 0Z" fill="#FFD552" p-id="4689"></path><path d="M715.6 804H111.2c-37.6 0-68.4-30.8-68.4-68.4V68.4C42.8 30.8 73.6 0 111.2 0h732.4c37.6 0 68.4 30.8 68.4 68.4v564.8l-9.2-4.8c-3.2-2-6.8-3.6-10-4.8-1.6-0.8-3.6-1.6-5.2-2-2-0.8-3.6-1.2-5.2-2-25.6-8.4-53.2-8.4-78.8 0-3.2 0.8-6 2-9.6 3.6-47.2 19.6-77.6 65.6-77.6 116.8v64zM111.2 12.4c-30.8 0-56 25.2-56 56v667.2c0 30.8 25.2 56 56 56h592.4v-52c0-56.4 33.6-106.4 85.2-128 3.6-1.6 7.2-2.8 10.4-4 28-9.2 58.4-9.2 86.4 0 2 0.8 4 1.2 5.6 2l6 2.4c0.8 0.4 1.6 0.8 2 0.8V68.4c0-30.8-25.2-56-56-56h-732z" fill="#4A555F" p-id="4690"></path><path d="M331.6 93.2l4.4-11.2c2.4-5.6 3.2-11.6 3.2-17.6 0-8.4-2-16.4-6.4-23.6l-7.2-12.4h517.2c22 0 40 18 40 40v24.8H331.6zM104.4 93.2L100 82c-2.4-5.6-3.2-11.6-3.2-17.6 0-8.4 2-16.4 6.4-23.6l7.2-12.4c-22 0-36.8 18-36.8 40v24.8h30.8z" fill="#F68F6F" p-id="4691"></path><path d="M48.8 108.8h856.4v12.4H48.8zM141.6 95.6c-17.2 0-31.2-14-31.2-31.2s14-31.2 31.2-31.2 31.2 14 31.2 31.2-14 31.2-31.2 31.2z m0-50c-10.4 0-18.8 8.4-18.8 18.8s8.4 18.8 18.8 18.8 18.8-8.4 18.8-18.8-8.4-18.8-18.8-18.8zM216.8 95.6c-17.2 0-31.2-14-31.2-31.2s14-31.2 31.2-31.2 31.2 14 31.2 31.2-14 31.2-31.2 31.2z m0-50c-10.4 0-18.8 8.4-18.8 18.8s8.4 18.8 18.8 18.8 18.8-8.4 18.8-18.8-8.4-18.8-18.8-18.8zM292 95.6c-17.2 0-31.2-14-31.2-31.2s14-31.2 31.2-31.2 31.2 14 31.2 31.2-14 31.2-31.2 31.2z m0-50c-10.4 0-18.8 8.4-18.8 18.8s8.4 18.8 18.8 18.8 18.8-8.4 18.8-18.8-8.4-18.8-18.8-18.8zM474.8 730h-6.4c-2 0-4 0-6-0.4l0.8-12.4c2 0 4 0 6 0.4h6l-0.4 12.4z m12.4-0.4l-0.4-12.4c4 0 8-0.4 12-0.8l1.2 12.4c-4.4 0.4-8.4 0.8-12.8 0.8z m-37.6-1.2c-4-0.4-8.4-0.8-12.4-1.6l1.6-12c4 0.4 8 1.2 12 1.6l-1.2 12z m62.8-0.8l-1.6-12c4-0.4 8-1.2 12-2l2 12c-4 0.8-8.4 1.2-12.4 2z m-87.6-2.8c-4-0.8-8.4-1.6-12.4-2.8l2.8-12c4 0.8 8 1.6 11.6 2.4l-2 12.4z m112.4-2l-2.8-12c4-0.8 7.6-2 11.6-2.8l3.2 12c-4 0.8-8 2-12 2.8z m-136.8-3.6l-12-3.6 4-11.6c3.6 1.2 7.6 2.4 11.6 3.6l-3.6 11.6z m160.8-3.2l-4-11.6c3.6-1.2 7.6-2.8 11.2-4l4.4 11.6c-3.6 1.6-7.6 2.8-11.6 4z m-184.8-5.2c-4-1.6-7.6-3.2-11.6-4.8l5.2-11.2c3.6 1.6 7.2 3.2 11.2 4.8l-4.8 11.2z m208.4-3.6L580 696c3.6-1.6 7.2-3.2 10.8-5.2l5.6 11.2c-4 1.6-7.6 3.6-11.6 5.2z m-231.2-6.8c-3.6-2-7.6-4-11.2-6l6-10.8c3.6 2 7.2 4 10.4 5.6l-5.2 11.2z m253.6-4.4l-6-10.8c3.6-2 6.8-4 10.4-6l6.4 10.4c-3.6 2.4-7.2 4.4-10.8 6.4z m-275.6-8c-3.6-2.4-7.2-4.4-10.4-6.8l7.2-10c3.2 2.4 6.8 4.4 10 6.8l-6.8 10z m297.2-5.2l-6.8-10c3.2-2.4 6.4-4.4 9.6-6.8l7.2 10c-3.2 2-6.8 4.4-10 6.8z m-317.6-9.2c-3.2-2.4-6.4-5.2-9.6-8l8-9.2c3.2 2.4 6 5.2 9.2 7.6l-7.6 9.6z m337.6-6l-8-9.6c3.2-2.4 6-5.2 9.2-8l8.4 9.2c-3.2 3.2-6.4 6-9.6 8.4zM292 657.6c-3.2-2.8-6-5.6-9.2-8.8l8.8-8.8 8.4 8.4-8 9.2z m375.2-6.8l-8.8-8.8c2.8-2.8 5.6-5.6 8.4-8.8l9.2 8.4c-2.8 3.2-5.6 6.4-8.8 9.2z m-392.8-11.2c-2.8-3.2-5.6-6.4-8-9.6l9.6-7.6c2.4 3.2 5.2 6 7.6 9.2l-9.2 8z m410-7.2l-9.6-8c2.4-3.2 5.2-6.4 7.6-9.6l9.6 7.6c-2.4 3.2-5.2 6.8-7.6 10zM258.4 620c-2.4-3.2-4.8-6.8-7.2-10.4l10.4-6.8c2.4 3.2 4.4 6.8 6.8 10l-10 7.2z m441.2-7.6l-10-6.8c2.4-3.2 4.4-6.8 6.4-10l10.4 6.4c-2.4 3.2-4.4 6.8-6.8 10.4z m-455.2-13.2c-2-3.6-4.4-7.2-6.4-10.8l10.8-6c2 3.6 4 6.8 6 10.4l-10.4 6.4z m468.4-8.4l-10.8-6c2-3.6 4-7.2 5.6-10.8l11.2 5.6c-2 4-4 7.6-6 11.2z m-480.4-13.6c-2-3.6-3.6-7.6-5.2-11.6l11.2-4.8 4.8 10.8-10.8 5.6z m491.6-8.8l-11.2-4.8c1.6-3.6 3.2-7.2 4.4-11.2l11.6 4.4c-1.6 3.6-3.2 7.6-4.8 11.6z m-501.2-14.4c-1.6-4-2.8-8-4-12l11.6-3.6c1.2 3.6 2.4 7.6 4 11.2l-11.6 4.4z m510.4-9.2l-11.6-4c1.2-3.6 2.4-7.6 3.6-11.6l12 3.2c-1.6 4.4-2.8 8.4-4 12.4z m-518.4-14.8c-1.2-4-2-8-3.2-12.4l12-2.8c0.8 4 2 8 2.8 11.6l-11.6 3.6z m525.2-9.2l-12-2.8c0.8-4 1.6-8 2.4-11.6l12 2.4c-0.8 3.6-1.6 7.6-2.4 12z m-530.4-15.2c-0.8-4-1.2-8.4-2-12.4l12-1.6c0.4 4 1.2 8 1.6 12l-11.6 2z m534.8-9.6l-12-1.6 1.2-12 12.4 1.2c-0.4 4-1.2 8-1.6 12.4z m-538-15.6c-0.4-4-0.4-8.4-0.8-12.4l12.4-0.4c0 4 0.4 8 0.8 12l-12.4 0.8z m11.6-24.8h-12.4v-4c0-2.8 0.4-5.6 0.4-8.4l12.4 0.8c0 2.8-0.4 5.2-0.4 8v3.6z m1.2-24l-12.4-1.2c0.4-4 0.8-8.4 1.6-12.4l12 2c0 3.6-0.8 7.6-1.2 11.6z m514-0.4c-0.4-4-0.8-8-1.6-12l12-2c0.8 4 1.2 8.4 1.6 12.4l-12 1.6zM222.8 408l-12-2.4c0.8-4 1.6-8.4 2.8-12.4l12 2.8c-0.8 4-2 8-2.8 12z m506.8-0.4c-0.8-4-1.6-8-2.8-11.6l12-3.2c1.2 4 2 8 2.8 12.4l-12 2.4zM228.8 384.8l-11.6-3.6c1.2-4 2.4-8 4-12l11.6 4c-1.6 4-2.8 7.6-4 11.6z m494.8-0.4c-1.2-3.6-2.4-7.6-3.6-11.2l11.6-4c1.2 4 2.8 8 4 12l-12 3.2zM236.8 362l-11.2-4.8c1.6-4 3.2-7.6 5.2-11.6l11.2 5.2c-2 4-3.6 7.6-5.2 11.2z m478.8-0.4l-4.8-10.8 11.2-5.2c1.6 3.6 3.6 7.6 5.2 11.6l-11.6 4.4zM246.8 340L236 334.4c2-3.6 4-7.6 6-11.2l10.8 6c-2 4-4 7.6-6 10.8z m458.8 0c-2-3.6-4-7.2-5.6-10.4l10.8-6 6 10.8-11.2 5.6zM258.8 319.6l-10.4-6.8c2.4-3.6 4.8-7.2 7.2-10.4l10 7.2c-2.4 3.2-4.4 6.4-6.8 10z m434.8-0.4c-2-3.2-4.4-6.8-6.8-10l10-7.2c2.4 3.6 4.8 6.8 7.2 10.4l-10.4 6.8zM272.8 300l-9.6-7.6c2.4-3.2 5.2-6.4 8-9.6l9.2 8c-2.4 2.8-5.2 6-7.6 9.2z m406.8-0.4c-2.4-3.2-5.2-6.4-7.6-9.2l9.2-8c2.8 3.2 5.6 6.4 8 9.6l-9.6 7.6z m-391.2-18l-8.8-8.4c2.8-3.2 6-6 8.8-8.8l8.4 8.8-8.4 8.4z m375.6 0l-8.4-8.4L664 264l8.8 8.8-8.8 8.8z m-358-16.4l-8-9.2c3.2-2.8 6.4-5.6 9.6-8l7.6 9.6c-3.2 2-6.4 4.8-9.2 7.6z m340.4-0.4c-2.8-2.8-6-5.2-9.2-7.6l7.6-9.6c3.2 2.8 6.4 5.2 9.6 8l-8 9.2z m-322-14.8L317.2 240c3.2-2.4 6.8-4.8 10.4-7.2l6.8 10.4c-3.2 2.4-6.4 4.4-10 6.8z m303.2 0c-3.2-2.4-6.4-4.8-10-6.8l6.8-10.4c3.6 2.4 6.8 4.8 10.4 7.2l-7.2 10z m-282.8-13.2l-6.4-10.4 10.8-6 5.6 10.8c-3.2 1.6-6.8 3.6-10 5.6z m262.8 0c-3.6-2-6.8-4-10.4-6l5.6-10.8 10.8 6-6 10.8z m-242-11.2l-5.2-11.2c3.6-1.6 7.6-3.6 11.6-5.2l4.8 11.2c-3.6 2-7.6 3.6-11.2 5.2z m220.8 0l-10.8-4.8 4.8-11.2c4 1.6 7.6 3.2 11.6 5.2l-5.6 10.8zM388 216.4l-4.4-11.6c4-1.6 8-2.8 12-4l3.6 11.6c-3.6 1.2-7.6 2.8-11.2 4z m176.4 0c-3.6-1.2-7.6-2.8-11.2-4l3.6-11.6c4 1.2 8 2.4 12 4l-4.4 11.6z m-153.6-7.2l-3.2-12c4-1.2 8-2 12.4-2.8l2.4 12c-4 0.8-7.6 2-11.6 2.8z m130.4 0c-4-0.8-7.6-2-11.6-2.8l2.4-12c4 0.8 8.4 2 12.4 2.8l-3.2 12z m-106.8-4.8l-2-12c4-0.8 8.4-1.2 12.4-1.6l1.6 12.4c-4.4 0-8.4 0.4-12 1.2z m83.6-0.4c-4-0.8-8-1.2-12-1.6l1.6-12.4c4 0.4 8.4 1.2 12.4 1.6l-2 12.4z m-60-2.4l-0.8-12.4c4-0.4 8.4-0.4 12.4-0.4l0.4 12.4c-4 0-8 0-12 0.4z m36 0c-3.2-0.4-6.8-0.4-10.4-0.4h-1.6l0.4-12.4h2c3.6 0 7.2 0.4 10.8 0.4l-1.2 12.4zM476.4 535.6c-23.2 0-42-18.8-42-42h12.4c0 16.4 13.2 29.6 29.6 29.6s29.6-13.2 29.6-29.6c0-14.8-12-26.8-26.8-26.8h-5.6c-21.6 0-39.2-17.6-39.2-39.2v-2.8c0-23.2 18.8-42 42-42s42 18.8 42 42v0.8h-12.4v-0.8c0-16.4-13.2-29.6-29.6-29.6s-29.6 13.2-29.6 29.6v2.8c0 14.8 12 26.8 26.8 26.8h5.6c21.6 0 39.2 17.6 39.2 39.2 0 23.2-19.2 42-42 42z" fill="#4A555F" p-id="4692"></path><path d="M470 367.6h12.4v21.6h-12.4zM470 529.2h12.4v21.6h-12.4z" fill="#4A555F" p-id="4693"></path><path d="M475.6 658.8c-109.6 0-198.8-89.2-198.8-198.8s89.2-198.8 198.8-198.8 198.8 89.2 198.8 198.8-89.2 198.8-198.8 198.8z m0-385.6c-102.8 0-186.8 83.6-186.8 186.8s83.6 186.8 186.8 186.8c102.8 0 186.8-83.6 186.8-186.8s-84-186.8-186.8-186.8z" fill="#4A555F" p-id="4694"></path><path d="M475.6 216C340.8 216 232 325.2 232 460s109.2 244 244 244 243.6-109.2 243.6-244-109.2-244-244-244z m0 460.8c-119.6 0-216.8-97.2-216.8-216.8 0-119.6 97.2-216.8 216.8-216.8 119.6 0 216.8 97.2 216.8 216.8 0 119.6-97.2 216.8-216.8 216.8z" fill="#71CDE1" p-id="4695"></path><path d="M877.2 1024h-69.6c-57.2 0-104-46.8-104-104v-180.4c0-60.4 38.4-113.2 95.6-132 28-9.2 58.4-9.2 86.4 0 57.2 18.8 95.6 71.6 95.6 132V920c0 57.2-46.8 104-104 104z m-34.8-411.2c-13.2 0-26.8 2-39.2 6.4-52.4 17.2-87.2 65.6-87.2 120.4V920c0 50.8 41.2 91.6 91.6 91.6h69.6c50.8 0 91.6-41.2 91.6-91.6v-180.4c0-54.8-35.2-103.2-87.2-120.4-12.8-4-26-6.4-39.2-6.4z" fill="#4A555F" p-id="4696"></path><path d="M877.2 1024h-69.6c-57.2 0-104-46.8-104-104v-180.4c0-60.4 38.4-113.2 95.6-132 28-9.2 58.4-9.2 86.4 0 57.2 18.8 95.6 71.6 95.6 132V920c0 57.2-46.8 104-104 104z m-34.8-411.2c-13.2 0-26.8 2-39.2 6.4-52.4 17.2-87.2 65.6-87.2 120.4V920c0 50.8 41.2 91.6 91.6 91.6h69.6c50.8 0 91.6-41.2 91.6-91.6v-180.4c0-54.8-35.2-103.2-87.2-120.4-12.8-4-26-6.4-39.2-6.4z" fill="#4A555F" p-id="4697"></path><path d="M877.2 632.8c-11.2-3.6-23.2-5.6-34.8-5.6-12 0-23.6 2-34.8 5.6-46.4 15.2-77.2 58-77.2 106.8V920c0 42.8 34.8 77.6 77.6 77.6h69.6c42.8 0 77.6-34.8 77.6-77.6v-180.4c-0.4-48.8-31.6-91.6-78-106.8z m-13.6 88.4h-42.4v-64.4h42.4v64.4z" fill="#E0E0E0" p-id="4698"></path><path d="M902.4 628.4c-3.2-2-6.8-3.6-10-4.8l4.8-11.2c4 1.6 8 3.6 11.2 5.6l-6 10.4zM869.6 727.2h-54.8v-76.4h54.8v76.4z m-42.4-12h30.4v-52h-30.4v52z" fill="#4A555F" p-id="4699"></path><path d="M848.4 657.2H836v-111.2c0-44.4-36-80.4-80.4-80.4h-86.8v-12.4H756c51.2 0 92.8 41.6 92.8 92.8v111.2zM709.6 790h265.6v12.4h-265.6z" fill="#4A555F" p-id="4700"></path><path d="M836 723.6h12.4V796H836z" fill="#4A555F" p-id="4701"></path><path d="M475.6 625.2c-91.2 0-165.2-74-165.2-165.2s74-165.2 165.2-165.2c91.2 0 165.2 74 165.2 165.2 0 90.8-74 165.2-165.2 165.2z m0-318.4c-84.4 0-152.8 68.4-152.8 152.8s68.4 152.8 152.8 152.8 152.8-68.4 152.8-152.8c0-84-68.4-152.8-152.8-152.8z" fill="#4A555F" p-id="4702"></path></svg>