<?xml version="1.0" standalone="no"?><!DOCTYPE svg PUBLIC "-//W3C//DTD SVG 1.1//EN" "http://www.w3.org/Graphics/SVG/1.1/DTD/svg11.dtd"><svg t="1588608225952" class="icon" viewBox="0 0 1024 1024" version="1.1" xmlns="http://www.w3.org/2000/svg" p-id="1264" xmlns:xlink="http://www.w3.org/1999/xlink" width="32" height="32"><defs><style type="text/css"></style></defs><path d="M153.9328 248.4736h128.1024v166.0672H153.9328z" fill="#D74240" p-id="1265"></path><path d="M115.968 231.8848h179.0976v75.3408H115.968z" fill="#C63232" p-id="1266"></path><path d="M799.7184 547.7888c-50.5088-46.848-96.1536-89.1392-136.9344-126.8736-17.664-15.8208-34.8672-31.6672-51.584-47.4624a15229.1072 15229.1072 0 0 1-45.184-42.9312l-34.688-31.9232c-9.1136-8.5248-14.592-13.696-16.4352-15.5136-17.0496-15.8208-36.1984-23.296-57.4976-22.3744-21.2992 0.9216-39.552 8.3712-54.784 22.3744a1115.392 1115.392 0 0 1-17.792 16.8704c-9.4464 8.832-21.1456 19.6608-35.1488 32.4096-14.0032 12.8-29.5168 26.9056-46.5664 42.4192a7754.752 7754.752 0 0 0-51.1232 47.0016c-40.7808 37.12-86.0928 78.5152-135.9872 124.1344v181.6832c0 14.6176 5.1456 25.8816 15.5136 33.7664 10.3424 7.9104 24.3456 11.8528 41.984 11.8528h547.1744l79.0528-79.0528v-146.3808z" fill="#E1E8ED" p-id="1267"></path><path d="M720.6656 773.2224h23.3728c17.0496-0.6144 30.592-6.0672 40.6272-16.4352 10.0352-10.368 15.0528-22.2208 15.0528-35.584v-27.0336l-79.0528 79.0528z" fill="#E1E8ED" p-id="1268"></path><path d="M896.4608 525.0304l-22.8096-22.8352a2267.0848 2267.0848 0 0 0-42.88-41.5232 3901.184 3901.184 0 0 1-56.1408-54.3232 5756.928 5756.928 0 0 0-62.5408-60.6976 11434.9056 11434.9056 0 0 1-62.976-60.7232 18193.28 18193.28 0 0 0-56.1408-54.2976 17861.9648 17861.9648 0 0 1-42.4192-41.0624c-11.5712-11.264-19.1744-18.4064-22.8352-21.4528-18.8672-18.2528-41.6768-27.2384-68.48-26.9056-26.7776 0.2816-51.712 11.7248-74.8544 34.2272-3.0464 3.0464-13.8752 13.2352-32.4096 30.592-18.56 17.3312-40.7808 38.1952-66.6624 62.5152a19330.688 19330.688 0 0 1-83.9936 78.5152l-84.4544 78.4896c-26.1632 24.3456-48.6912 45.3632-67.5584 62.976a2298.496 2298.496 0 0 0-33.7664 31.9488c-9.728 9.1136-14.8992 21.4528-15.5136 36.9664s5.1712 28.7744 17.3312 39.7056c10.9312 9.7536 24.0128 14.3104 39.2448 13.696 15.232-0.6144 27.392-4.5824 36.5312-11.8528 3.0464-2.432 12.0064-10.496 26.9312-24.192a6462.208 6462.208 0 0 0 53.4016-49.7408c20.6848-19.4816 43.2128-40.4736 67.5584-62.976 24.3456-22.528 47.4624-44.1088 69.376-64.7936a9538.56 9538.56 0 0 1 57.984-54.3232c16.7424-15.5136 28.16-26.0096 34.2272-31.488 18.2528-16.4352 36.8128-24.96 55.68-25.5488 18.8672-0.6144 38.0416 7.936 57.4976 25.5488 4.2496 3.6352 14.3104 13.0816 30.1312 28.3136 15.7952 15.232 34.6624 33.152 56.576 53.8624 21.9136 20.7104 45.184 42.752 69.8368 66.2016a30138.624 30138.624 0 0 0 125.056 118.2464c15.5136 14.6176 24.8064 23.1168 27.8528 25.5488 9.1392 7.9104 21.2992 12.1856 36.5312 12.8a54.784 54.784 0 0 0 40.1664-14.6176c10.3424-9.728 15.232-21.9136 14.592-36.5312-0.6144-14.6944-7.3216-28.1088-20.0704-40.2688z" fill="#D66648" p-id="1269"></path><path d="M799.7184 657.3824c-50.5088-46.848-96.1536-89.1392-136.9344-126.8736-17.664-15.8208-34.8672-31.6672-51.584-47.4624s-31.7696-30.1312-45.184-42.9312l-34.688-31.9488c-9.1136-8.4992-14.592-13.696-16.4352-15.5136-17.0496-15.8208-36.1984-23.2704-57.4976-22.3744a83.6096 83.6096 0 0 0-54.784 22.3744c-2.432 2.432-8.3712 8.064-17.792 16.896-9.4464 8.832-21.1456 19.6608-35.1488 32.4096-14.0032 12.8-29.5168 26.9056-46.5664 42.4192a7754.752 7754.752 0 0 0-51.1232 47.0016c-40.7808 37.12-86.0928 78.5152-135.9872 124.1344v181.6832c0 14.6176 5.1456 25.8816 15.5136 33.7664 10.3424 7.9104 24.3456 11.8528 41.984 11.8528H611.072l188.6464-188.6464v-36.7872z" fill="#FFFFFF" p-id="1270"></path><path d="M611.072 882.8416h132.9664c17.0496-0.6144 30.592-6.0672 40.6272-16.4352 10.0352-10.368 15.0528-22.1952 15.0528-35.584v-136.6272l-188.6464 188.6464z" fill="#E1E8ED" p-id="1271"></path><path d="M240.8448 664.7552h143.9232v218.0864H240.8448z" fill="#F56E57" p-id="1272"></path><path d="M562.816 654.3104a1.9456 1.9456 0 0 1-1.9456 1.9456h-87.8336a1.9456 1.9456 0 0 1-1.9456-1.9456v-87.8336c0-1.0752 0.8704-1.9456 1.9456-1.9456h87.8336c1.0752 0 1.9456 0.8704 1.9456 1.9456v87.8336z" fill="#C0E6FD" p-id="1273"></path><path d="M675.7632 654.3104a1.9456 1.9456 0 0 1-1.9456 1.9456H585.984a1.9456 1.9456 0 0 1-1.9456-1.9456v-87.8336c0-1.0752 0.8704-1.9456 1.9456-1.9456h87.8336c1.0752 0 1.9456 0.8704 1.9456 1.9456v87.8336z" fill="#C0E6FD" p-id="1274"></path><path d="M562.816 762.9824a1.9456 1.9456 0 0 1-1.9456 1.9456h-87.8336a1.9456 1.9456 0 0 1-1.9456-1.9456v-87.8336c0-1.0752 0.8704-1.9456 1.9456-1.9456h87.8336c1.0752 0 1.9456 0.8704 1.9456 1.9456v87.8336z" fill="#C0E6FD" p-id="1275"></path><path d="M675.7376 762.9824v-87.808a1.9456 1.9456 0 0 0-1.9456-1.9456h-87.808a1.9712 1.9712 0 0 0-1.9456 1.9456v87.808c0 1.0752 0.896 1.9456 1.9456 1.9456h87.808a1.92 1.92 0 0 0 1.9456-1.9456z" fill="#C0E6FD" p-id="1276"></path><path d="M876.9792 714.496l0 0zM805.5296 470.784l0 0z" fill="#F8FCFF" p-id="1277"></path><path d="M1021.2352 569.5488a10.6752 10.6752 0 0 0-7.1936-4.3008l-62.5664-9.5488a199.424 199.424 0 0 1 8.96 59.3408l-0.0512 0.6912a200.0384 200.0384 0 0 0-8.9088-58.6496l-0.3072-0.0512a208.9472 208.9472 0 0 0-14.0544-33.6896l0.1792-0.256c4.1216-5.7088 10.24-13.6448 18.3552-23.936 8.2432-10.4448 14.0544-18.0224 17.5104-22.8608a13.1328 13.1328 0 0 0 2.7392-7.9104 11.008 11.008 0 0 0-2.4064-7.552c-8.2432-11.6736-27.136-31.1296-56.6784-58.3936a13.312 13.312 0 0 0-8.576-3.4304 11.008 11.008 0 0 0-8.2432 3.072l-48.2816 36.3776-0.4864 0.384a211.968 211.968 0 0 0-30.8992-12.7232l-0.128-0.768-9.4976-62.4384a10.112 10.112 0 0 0-3.9424-7.3728 12.9536 12.9536 0 0 0-8.4224-2.9184h-76.2624c-6.6304 0-10.752 3.2-12.3648 9.6256-2.944 11.3408-6.2464 32.4608-9.9072 63.232l-0.0768 0.64c-10.752 3.456-21.1712 7.808-31.232 13.056l-0.512-0.384-46.8992-36.3776a14.6944 14.6944 0 0 0-8.9344-3.4304c-5.0176 0-15.8464 8.192-32.4608 24.5504s-27.8784 28.672-33.8432 36.9152a14.3616 14.3616 0 0 0-3.072 7.9104c0 2.7392 1.152 5.504 3.4304 8.2432a779.264 779.264 0 0 1 36.5824 47.1808l0.1792 0.2304a168.7296 168.7296 0 0 0-13.3888 31.616l-0.1536 0.0256-63.7184 9.5744a10.24 10.24 0 0 0-6.528 4.48 13.056 13.056 0 0 0-2.7392 7.9104v76.2368c0 2.9696 0.896 5.6832 2.7392 8.0896 1.8176 2.4064 4.224 3.84 7.1936 4.3008l62.4896 9.216 0.384 0.0512c3.1744 11.2128 7.9104 22.528 14.0544 33.9968l-0.1792 0.256c-4.1216 5.7088-10.2144 13.6448-18.3552 23.9616-8.2432 10.4192-14.0544 18.0224-17.5104 22.8608a13.44 13.44 0 0 0-0.3328 15.8208c8.9344 12.3648 27.8272 31.616 56.6784 57.7024a11.7248 11.7248 0 0 0 8.576 3.7888 12.288 12.288 0 0 0 8.6016-3.072l47.9232-36.3776 0.4864-0.384a214.016 214.016 0 0 0 30.9248 12.7232l0.1024 0.768 9.4976 62.4384a10.24 10.24 0 0 0 3.9424 7.3728 12.9536 12.9536 0 0 0 8.4224 2.8928h76.2624c6.6304 0 10.752-3.1744 12.3648-9.6 2.944-11.3408 6.2464-32.4864 9.9072-63.2576l0.0768-0.6144c10.752-3.456 21.1712-7.808 31.232-13.056l0.512 0.384c0.3584-0.1792 0.6656-0.4352 0.9984-0.6144l45.8752 35.9424c3.2 2.048 6.1952 3.072 8.9344 3.072 5.0176 0 15.7952-8.1408 32.2816-24.3968 16.512-16.2304 27.8272-28.6208 34.0224-37.0944a11.3664 11.3664 0 0 0 3.072-7.9104 13.312 13.312 0 0 0-3.4304-8.576c-16.2304-19.8656-28.3648-35.4304-36.352-46.8736 4.4288-8.32 8.7552-18.3808 12.9792-30.3872l0.1536-0.0256c0.1536-0.4864 0.2048-0.9728 0.3584-1.4848l63.0528-9.5232a10.4448 10.4448 0 0 0 6.8608-4.4544 13.1584 13.1584 0 0 0 2.7648-7.9104v-76.2624a12.928 12.928 0 0 0-2.7648-8.064z m-261.0688 199.4496c-84.2496 0-152.5248-68.2752-152.5248-152.5248s68.2752-152.5248 152.5248-152.5248 152.5248 68.2752 152.5248 152.5248-68.2752 152.5248-152.5248 152.5248z" fill="#3BAFDA" p-id="1278"></path><path d="M607.6416 616.4736a152.4992 152.4992 0 1 0 305.0496-0.0256 152.0384 152.0384 0 0 0-18.4064-72.704 153.088 153.088 0 0 0-88.7552-72.96 152.6272 152.6272 0 0 0-45.3632-6.8608c-11.7248 0-23.1168 1.4592-34.0736 3.968a152.5248 152.5248 0 0 0-118.4512 148.5824z m90.368-62.1824a84.6848 84.6848 0 0 1 62.1824-25.7536 84.736 84.736 0 0 1 62.1824 25.7536 84.6848 84.6848 0 0 1 25.7536 62.1824 84.736 84.736 0 0 1-25.7536 62.1824 84.6848 84.6848 0 0 1-62.1824 25.7536c-24.2688 0-45.0048-8.576-62.1824-25.7536s-25.7536-37.888-25.7536-62.1824a84.6336 84.6336 0 0 1 25.7536-62.1824z" fill="#7AC3E1" p-id="1279"></path></svg>