<?xml version='1.0' encoding='UTF-8'?>
<svg height="12.4mm" version="1.1" width="12.4mm" xmlns="http://www.w3.org/2000/svg"><rect height="0.4mm" width="0.4mm" x="0.4mm" y="0.4mm" /><rect height="0.4mm" width="0.4mm" x="0.8mm" y="0.4mm" /><rect height="0.4mm" width="0.4mm" x="1.2mm" y="0.4mm" /><rect height="0.4mm" width="0.4mm" x="1.6mm" y="0.4mm" /><rect height="0.4mm" width="0.4mm" x="2mm" y="0.4mm" /><rect height="0.4mm" width="0.4mm" x="2.4mm" y="0.4mm" /><rect height="0.4mm" width="0.4mm" x="2.8mm" y="0.4mm" /><rect height="0.4mm" width="0.4mm" x="4.4mm" y="0.4mm" /><rect height="0.4mm" width="0.4mm" x="5.2mm" y="0.4mm" /><rect height="0.4mm" width="0.4mm" x="5.6mm" y="0.4mm" /><rect height="0.4mm" width="0.4mm" x="7.2mm" y="0.4mm" /><rect height="0.4mm" width="0.4mm" x="7.6mm" y="0.4mm" /><rect height="0.4mm" width="0.4mm" x="8mm" y="0.4mm" /><rect height="0.4mm" width="0.4mm" x="8.4mm" y="0.4mm" /><rect height="0.4mm" width="0.4mm" x="9.2mm" y="0.4mm" /><rect height="0.4mm" width="0.4mm" x="9.6mm" y="0.4mm" /><rect height="0.4mm" width="0.4mm" x="10mm" y="0.4mm" /><rect height="0.4mm" width="0.4mm" x="10.4mm" y="0.4mm" /><rect height="0.4mm" width="0.4mm" x="10.8mm" y="0.4mm" /><rect height="0.4mm" width="0.4mm" x="11.2mm" y="0.4mm" /><rect height="0.4mm" width="0.4mm" x="11.6mm" y="0.4mm" /><rect height="0.4mm" width="0.4mm" x="0.4mm" y="0.8mm" /><rect height="0.4mm" width="0.4mm" x="2.8mm" y="0.8mm" /><rect height="0.4mm" width="0.4mm" x="3.6mm" y="0.8mm" /><rect height="0.4mm" width="0.4mm" x="4.4mm" y="0.8mm" /><rect height="0.4mm" width="0.4mm" x="5.6mm" y="0.8mm" /><rect height="0.4mm" width="0.4mm" x="6mm" y="0.8mm" /><rect height="0.4mm" width="0.4mm" x="6.4mm" y="0.8mm" /><rect height="0.4mm" width="0.4mm" x="6.8mm" y="0.8mm" /><rect height="0.4mm" width="0.4mm" x="8.4mm" y="0.8mm" /><rect height="0.4mm" width="0.4mm" x="9.2mm" y="0.8mm" /><rect height="0.4mm" width="0.4mm" x="11.6mm" y="0.8mm" /><rect height="0.4mm" width="0.4mm" x="0.4mm" y="1.2mm" /><rect height="0.4mm" width="0.4mm" x="1.2mm" y="1.2mm" /><rect height="0.4mm" width="0.4mm" x="1.6mm" y="1.2mm" /><rect height="0.4mm" width="0.4mm" x="2mm" y="1.2mm" /><rect height="0.4mm" width="0.4mm" x="2.8mm" y="1.2mm" /><rect height="0.4mm" width="0.4mm" x="5.2mm" y="1.2mm" /><rect height="0.4mm" width="0.4mm" x="6.4mm" y="1.2mm" /><rect height="0.4mm" width="0.4mm" x="6.8mm" y="1.2mm" /><rect height="0.4mm" width="0.4mm" x="7.6mm" y="1.2mm" /><rect height="0.4mm" width="0.4mm" x="8.4mm" y="1.2mm" /><rect height="0.4mm" width="0.4mm" x="9.2mm" y="1.2mm" /><rect height="0.4mm" width="0.4mm" x="10mm" y="1.2mm" /><rect height="0.4mm" width="0.4mm" x="10.4mm" y="1.2mm" /><rect height="0.4mm" width="0.4mm" x="10.8mm" y="1.2mm" /><rect height="0.4mm" width="0.4mm" x="11.6mm" y="1.2mm" /><rect height="0.4mm" width="0.4mm" x="0.4mm" y="1.6mm" /><rect height="0.4mm" width="0.4mm" x="1.2mm" y="1.6mm" /><rect height="0.4mm" width="0.4mm" x="1.6mm" y="1.6mm" /><rect height="0.4mm" width="0.4mm" x="2mm" y="1.6mm" /><rect height="0.4mm" width="0.4mm" x="2.8mm" y="1.6mm" /><rect height="0.4mm" width="0.4mm" x="3.6mm" y="1.6mm" /><rect height="0.4mm" width="0.4mm" x="4mm" y="1.6mm" /><rect height="0.4mm" width="0.4mm" x="4.4mm" y="1.6mm" /><rect height="0.4mm" width="0.4mm" x="5.2mm" y="1.6mm" /><rect height="0.4mm" width="0.4mm" x="5.6mm" y="1.6mm" /><rect height="0.4mm" width="0.4mm" x="6mm" y="1.6mm" /><rect height="0.4mm" width="0.4mm" x="6.4mm" y="1.6mm" /><rect height="0.4mm" width="0.4mm" x="7.2mm" y="1.6mm" /><rect height="0.4mm" width="0.4mm" x="8mm" y="1.6mm" /><rect height="0.4mm" width="0.4mm" x="9.2mm" y="1.6mm" /><rect height="0.4mm" width="0.4mm" x="10mm" y="1.6mm" /><rect height="0.4mm" width="0.4mm" x="10.4mm" y="1.6mm" /><rect height="0.4mm" width="0.4mm" x="10.8mm" y="1.6mm" /><rect height="0.4mm" width="0.4mm" x="11.6mm" y="1.6mm" /><rect height="0.4mm" width="0.4mm" x="0.4mm" y="2mm" /><rect height="0.4mm" width="0.4mm" x="1.2mm" y="2mm" /><rect height="0.4mm" width="0.4mm" x="1.6mm" y="2mm" /><rect height="0.4mm" width="0.4mm" x="2mm" y="2mm" /><rect height="0.4mm" width="0.4mm" x="2.8mm" y="2mm" /><rect height="0.4mm" width="0.4mm" x="4mm" y="2mm" /><rect height="0.4mm" width="0.4mm" x="5.6mm" y="2mm" /><rect height="0.4mm" width="0.4mm" x="6.8mm" y="2mm" /><rect height="0.4mm" width="0.4mm" x="7.2mm" y="2mm" /><rect height="0.4mm" width="0.4mm" x="7.6mm" y="2mm" /><rect height="0.4mm" width="0.4mm" x="8mm" y="2mm" /><rect height="0.4mm" width="0.4mm" x="9.2mm" y="2mm" /><rect height="0.4mm" width="0.4mm" x="10mm" y="2mm" /><rect height="0.4mm" width="0.4mm" x="10.4mm" y="2mm" /><rect height="0.4mm" width="0.4mm" x="10.8mm" y="2mm" /><rect height="0.4mm" width="0.4mm" x="11.6mm" y="2mm" /><rect height="0.4mm" width="0.4mm" x="0.4mm" y="2.4mm" /><rect height="0.4mm" width="0.4mm" x="2.8mm" y="2.4mm" /><rect height="0.4mm" width="0.4mm" x="3.6mm" y="2.4mm" /><rect height="0.4mm" width="0.4mm" x="4mm" y="2.4mm" /><rect height="0.4mm" width="0.4mm" x="4.8mm" y="2.4mm" /><rect height="0.4mm" width="0.4mm" x="5.2mm" y="2.4mm" /><rect height="0.4mm" width="0.4mm" x="6mm" y="2.4mm" /><rect height="0.4mm" width="0.4mm" x="6.4mm" y="2.4mm" /><rect height="0.4mm" width="0.4mm" x="7.2mm" y="2.4mm" /><rect height="0.4mm" width="0.4mm" x="9.2mm" y="2.4mm" /><rect height="0.4mm" width="0.4mm" x="11.6mm" y="2.4mm" /><rect height="0.4mm" width="0.4mm" x="0.4mm" y="2.8mm" /><rect height="0.4mm" width="0.4mm" x="0.8mm" y="2.8mm" /><rect height="0.4mm" width="0.4mm" x="1.2mm" y="2.8mm" /><rect height="0.4mm" width="0.4mm" x="1.6mm" y="2.8mm" /><rect height="0.4mm" width="0.4mm" x="2mm" y="2.8mm" /><rect height="0.4mm" width="0.4mm" x="2.4mm" y="2.8mm" /><rect height="0.4mm" width="0.4mm" x="2.8mm" y="2.8mm" /><rect height="0.4mm" width="0.4mm" x="3.6mm" y="2.8mm" /><rect height="0.4mm" width="0.4mm" x="4.4mm" y="2.8mm" /><rect height="0.4mm" width="0.4mm" x="5.2mm" y="2.8mm" /><rect height="0.4mm" width="0.4mm" x="6mm" y="2.8mm" /><rect height="0.4mm" width="0.4mm" x="6.8mm" y="2.8mm" /><rect height="0.4mm" width="0.4mm" x="7.6mm" y="2.8mm" /><rect height="0.4mm" width="0.4mm" x="8.4mm" y="2.8mm" /><rect height="0.4mm" width="0.4mm" x="9.2mm" y="2.8mm" /><rect height="0.4mm" width="0.4mm" x="9.6mm" y="2.8mm" /><rect height="0.4mm" width="0.4mm" x="10mm" y="2.8mm" /><rect height="0.4mm" width="0.4mm" x="10.4mm" y="2.8mm" /><rect height="0.4mm" width="0.4mm" x="10.8mm" y="2.8mm" /><rect height="0.4mm" width="0.4mm" x="11.2mm" y="2.8mm" /><rect height="0.4mm" width="0.4mm" x="11.6mm" y="2.8mm" /><rect height="0.4mm" width="0.4mm" x="4mm" y="3.2mm" /><rect height="0.4mm" width="0.4mm" x="4.4mm" y="3.2mm" /><rect height="0.4mm" width="0.4mm" x="4.8mm" y="3.2mm" /><rect height="0.4mm" width="0.4mm" x="6.4mm" y="3.2mm" /><rect height="0.4mm" width="0.4mm" x="6.8mm" y="3.2mm" /><rect height="0.4mm" width="0.4mm" x="0.4mm" y="3.6mm" /><rect height="0.4mm" width="0.4mm" x="0.8mm" y="3.6mm" /><rect height="0.4mm" width="0.4mm" x="1.2mm" y="3.6mm" /><rect height="0.4mm" width="0.4mm" x="1.6mm" y="3.6mm" /><rect height="0.4mm" width="0.4mm" x="2mm" y="3.6mm" /><rect height="0.4mm" width="0.4mm" x="2.8mm" y="3.6mm" /><rect height="0.4mm" width="0.4mm" x="3.2mm" y="3.6mm" /><rect height="0.4mm" width="0.4mm" x="3.6mm" y="3.6mm" /><rect height="0.4mm" width="0.4mm" x="4mm" y="3.6mm" /><rect height="0.4mm" width="0.4mm" x="4.8mm" y="3.6mm" /><rect height="0.4mm" width="0.4mm" x="5.6mm" y="3.6mm" /><rect height="0.4mm" width="0.4mm" x="6mm" y="3.6mm" /><rect height="0.4mm" width="0.4mm" x="6.4mm" y="3.6mm" /><rect height="0.4mm" width="0.4mm" x="7.2mm" y="3.6mm" /><rect height="0.4mm" width="0.4mm" x="8.4mm" y="3.6mm" /><rect height="0.4mm" width="0.4mm" x="8.8mm" y="3.6mm" /><rect height="0.4mm" width="0.4mm" x="9.6mm" y="3.6mm" /><rect height="0.4mm" width="0.4mm" x="10.4mm" y="3.6mm" /><rect height="0.4mm" width="0.4mm" x="11.2mm" y="3.6mm" /><rect height="0.4mm" width="0.4mm" x="0.4mm" y="4mm" /><rect height="0.4mm" width="0.4mm" x="0.8mm" y="4mm" /><rect height="0.4mm" width="0.4mm" x="1.2mm" y="4mm" /><rect height="0.4mm" width="0.4mm" x="2mm" y="4mm" /><rect height="0.4mm" width="0.4mm" x="3.2mm" y="4mm" /><rect height="0.4mm" width="0.4mm" x="4.4mm" y="4mm" /><rect height="0.4mm" width="0.4mm" x="5.2mm" y="4mm" /><rect height="0.4mm" width="0.4mm" x="5.6mm" y="4mm" /><rect height="0.4mm" width="0.4mm" x="6.8mm" y="4mm" /><rect height="0.4mm" width="0.4mm" x="7.2mm" y="4mm" /><rect height="0.4mm" width="0.4mm" x="7.6mm" y="4mm" /><rect height="0.4mm" width="0.4mm" x="8mm" y="4mm" /><rect height="0.4mm" width="0.4mm" x="9.2mm" y="4mm" /><rect height="0.4mm" width="0.4mm" x="9.6mm" y="4mm" /><rect height="0.4mm" width="0.4mm" x="10mm" y="4mm" /><rect height="0.4mm" width="0.4mm" x="11.6mm" y="4mm" /><rect height="0.4mm" width="0.4mm" x="1.6mm" y="4.4mm" /><rect height="0.4mm" width="0.4mm" x="2.4mm" y="4.4mm" /><rect height="0.4mm" width="0.4mm" x="2.8mm" y="4.4mm" /><rect height="0.4mm" width="0.4mm" x="3.2mm" y="4.4mm" /><rect height="0.4mm" width="0.4mm" x="3.6mm" y="4.4mm" /><rect height="0.4mm" width="0.4mm" x="4.4mm" y="4.4mm" /><rect height="0.4mm" width="0.4mm" x="6.4mm" y="4.4mm" /><rect height="0.4mm" width="0.4mm" x="6.8mm" y="4.4mm" /><rect height="0.4mm" width="0.4mm" x="7.2mm" y="4.4mm" /><rect height="0.4mm" width="0.4mm" x="9.6mm" y="4.4mm" /><rect height="0.4mm" width="0.4mm" x="0.4mm" y="4.8mm" /><rect height="0.4mm" width="0.4mm" x="0.8mm" y="4.8mm" /><rect height="0.4mm" width="0.4mm" x="2.4mm" y="4.8mm" /><rect height="0.4mm" width="0.4mm" x="5.2mm" y="4.8mm" /><rect height="0.4mm" width="0.4mm" x="6mm" y="4.8mm" /><rect height="0.4mm" width="0.4mm" x="6.4mm" y="4.8mm" /><rect height="0.4mm" width="0.4mm" x="9.6mm" y="4.8mm" /><rect height="0.4mm" width="0.4mm" x="10.4mm" y="4.8mm" /><rect height="0.4mm" width="0.4mm" x="11.2mm" y="4.8mm" /><rect height="0.4mm" width="0.4mm" x="0.4mm" y="5.2mm" /><rect height="0.4mm" width="0.4mm" x="1.2mm" y="5.2mm" /><rect height="0.4mm" width="0.4mm" x="2mm" y="5.2mm" /><rect height="0.4mm" width="0.4mm" x="2.8mm" y="5.2mm" /><rect height="0.4mm" width="0.4mm" x="3.2mm" y="5.2mm" /><rect height="0.4mm" width="0.4mm" x="3.6mm" y="5.2mm" /><rect height="0.4mm" width="0.4mm" x="4mm" y="5.2mm" /><rect height="0.4mm" width="0.4mm" x="4.4mm" y="5.2mm" /><rect height="0.4mm" width="0.4mm" x="5.2mm" y="5.2mm" /><rect height="0.4mm" width="0.4mm" x="5.6mm" y="5.2mm" /><rect height="0.4mm" width="0.4mm" x="6mm" y="5.2mm" /><rect height="0.4mm" width="0.4mm" x="7.2mm" y="5.2mm" /><rect height="0.4mm" width="0.4mm" x="8mm" y="5.2mm" /><rect height="0.4mm" width="0.4mm" x="8.4mm" y="5.2mm" /><rect height="0.4mm" width="0.4mm" x="10.4mm" y="5.2mm" /><rect height="0.4mm" width="0.4mm" x="10.8mm" y="5.2mm" /><rect height="0.4mm" width="0.4mm" x="0.8mm" y="5.6mm" /><rect height="0.4mm" width="0.4mm" x="1.2mm" y="5.6mm" /><rect height="0.4mm" width="0.4mm" x="1.6mm" y="5.6mm" /><rect height="0.4mm" width="0.4mm" x="2.4mm" y="5.6mm" /><rect height="0.4mm" width="0.4mm" x="3.2mm" y="5.6mm" /><rect height="0.4mm" width="0.4mm" x="3.6mm" y="5.6mm" /><rect height="0.4mm" width="0.4mm" x="6mm" y="5.6mm" /><rect height="0.4mm" width="0.4mm" x="6.8mm" y="5.6mm" /><rect height="0.4mm" width="0.4mm" x="7.2mm" y="5.6mm" /><rect height="0.4mm" width="0.4mm" x="7.6mm" y="5.6mm" /><rect height="0.4mm" width="0.4mm" x="8mm" y="5.6mm" /><rect height="0.4mm" width="0.4mm" x="8.8mm" y="5.6mm" /><rect height="0.4mm" width="0.4mm" x="9.2mm" y="5.6mm" /><rect height="0.4mm" width="0.4mm" x="9.6mm" y="5.6mm" /><rect height="0.4mm" width="0.4mm" x="10mm" y="5.6mm" /><rect height="0.4mm" width="0.4mm" x="11.6mm" y="5.6mm" /><rect height="0.4mm" width="0.4mm" x="0.4mm" y="6mm" /><rect height="0.4mm" width="0.4mm" x="2.8mm" y="6mm" /><rect height="0.4mm" width="0.4mm" x="3.2mm" y="6mm" /><rect height="0.4mm" width="0.4mm" x="3.6mm" y="6mm" /><rect height="0.4mm" width="0.4mm" x="4.8mm" y="6mm" /><rect height="0.4mm" width="0.4mm" x="5.2mm" y="6mm" /><rect height="0.4mm" width="0.4mm" x="5.6mm" y="6mm" /><rect height="0.4mm" width="0.4mm" x="6mm" y="6mm" /><rect height="0.4mm" width="0.4mm" x="6.4mm" y="6mm" /><rect height="0.4mm" width="0.4mm" x="7.6mm" y="6mm" /><rect height="0.4mm" width="0.4mm" x="9.2mm" y="6mm" /><rect height="0.4mm" width="0.4mm" x="10.4mm" y="6mm" /><rect height="0.4mm" width="0.4mm" x="10.8mm" y="6mm" /><rect height="0.4mm" width="0.4mm" x="0.4mm" y="6.4mm" /><rect height="0.4mm" width="0.4mm" x="0.8mm" y="6.4mm" /><rect height="0.4mm" width="0.4mm" x="2mm" y="6.4mm" /><rect height="0.4mm" width="0.4mm" x="2.4mm" y="6.4mm" /><rect height="0.4mm" width="0.4mm" x="3.6mm" y="6.4mm" /><rect height="0.4mm" width="0.4mm" x="4.8mm" y="6.4mm" /><rect height="0.4mm" width="0.4mm" x="6.8mm" y="6.4mm" /><rect height="0.4mm" width="0.4mm" x="7.6mm" y="6.4mm" /><rect height="0.4mm" width="0.4mm" x="9.6mm" y="6.4mm" /><rect height="0.4mm" width="0.4mm" x="10mm" y="6.4mm" /><rect height="0.4mm" width="0.4mm" x="11.2mm" y="6.4mm" /><rect height="0.4mm" width="0.4mm" x="0.4mm" y="6.8mm" /><rect height="0.4mm" width="0.4mm" x="2mm" y="6.8mm" /><rect height="0.4mm" width="0.4mm" x="2.8mm" y="6.8mm" /><rect height="0.4mm" width="0.4mm" x="3.2mm" y="6.8mm" /><rect height="0.4mm" width="0.4mm" x="4mm" y="6.8mm" /><rect height="0.4mm" width="0.4mm" x="4.4mm" y="6.8mm" /><rect height="0.4mm" width="0.4mm" x="4.8mm" y="6.8mm" /><rect height="0.4mm" width="0.4mm" x="5.6mm" y="6.8mm" /><rect height="0.4mm" width="0.4mm" x="6mm" y="6.8mm" /><rect height="0.4mm" width="0.4mm" x="7.2mm" y="6.8mm" /><rect height="0.4mm" width="0.4mm" x="8.4mm" y="6.8mm" /><rect height="0.4mm" width="0.4mm" x="10.4mm" y="6.8mm" /><rect height="0.4mm" width="0.4mm" x="10.8mm" y="6.8mm" /><rect height="0.4mm" width="0.4mm" x="0.4mm" y="7.2mm" /><rect height="0.4mm" width="0.4mm" x="1.2mm" y="7.2mm" /><rect height="0.4mm" width="0.4mm" x="2mm" y="7.2mm" /><rect height="0.4mm" width="0.4mm" x="4mm" y="7.2mm" /><rect height="0.4mm" width="0.4mm" x="5.2mm" y="7.2mm" /><rect height="0.4mm" width="0.4mm" x="8mm" y="7.2mm" /><rect height="0.4mm" width="0.4mm" x="8.8mm" y="7.2mm" /><rect height="0.4mm" width="0.4mm" x="9.2mm" y="7.2mm" /><rect height="0.4mm" width="0.4mm" x="9.6mm" y="7.2mm" /><rect height="0.4mm" width="0.4mm" x="10mm" y="7.2mm" /><rect height="0.4mm" width="0.4mm" x="10.8mm" y="7.2mm" /><rect height="0.4mm" width="0.4mm" x="11.6mm" y="7.2mm" /><rect height="0.4mm" width="0.4mm" x="0.4mm" y="7.6mm" /><rect height="0.4mm" width="0.4mm" x="1.2mm" y="7.6mm" /><rect height="0.4mm" width="0.4mm" x="2mm" y="7.6mm" /><rect height="0.4mm" width="0.4mm" x="2.8mm" y="7.6mm" /><rect height="0.4mm" width="0.4mm" x="4.4mm" y="7.6mm" /><rect height="0.4mm" width="0.4mm" x="6mm" y="7.6mm" /><rect height="0.4mm" width="0.4mm" x="6.4mm" y="7.6mm" /><rect height="0.4mm" width="0.4mm" x="7.6mm" y="7.6mm" /><rect height="0.4mm" width="0.4mm" x="8.8mm" y="7.6mm" /><rect height="0.4mm" width="0.4mm" x="9.6mm" y="7.6mm" /><rect height="0.4mm" width="0.4mm" x="10.8mm" y="7.6mm" /><rect height="0.4mm" width="0.4mm" x="0.4mm" y="8mm" /><rect height="0.4mm" width="0.4mm" x="1.2mm" y="8mm" /><rect height="0.4mm" width="0.4mm" x="1.6mm" y="8mm" /><rect height="0.4mm" width="0.4mm" x="2.4mm" y="8mm" /><rect height="0.4mm" width="0.4mm" x="3.2mm" y="8mm" /><rect height="0.4mm" width="0.4mm" x="4mm" y="8mm" /><rect height="0.4mm" width="0.4mm" x="5.2mm" y="8mm" /><rect height="0.4mm" width="0.4mm" x="6mm" y="8mm" /><rect height="0.4mm" width="0.4mm" x="6.8mm" y="8mm" /><rect height="0.4mm" width="0.4mm" x="7.6mm" y="8mm" /><rect height="0.4mm" width="0.4mm" x="9.6mm" y="8mm" /><rect height="0.4mm" width="0.4mm" x="11.2mm" y="8mm" /><rect height="0.4mm" width="0.4mm" x="0.4mm" y="8.4mm" /><rect height="0.4mm" width="0.4mm" x="1.2mm" y="8.4mm" /><rect height="0.4mm" width="0.4mm" x="1.6mm" y="8.4mm" /><rect height="0.4mm" width="0.4mm" x="2.4mm" y="8.4mm" /><rect height="0.4mm" width="0.4mm" x="2.8mm" y="8.4mm" /><rect height="0.4mm" width="0.4mm" x="3.2mm" y="8.4mm" /><rect height="0.4mm" width="0.4mm" x="3.6mm" y="8.4mm" /><rect height="0.4mm" width="0.4mm" x="4mm" y="8.4mm" /><rect height="0.4mm" width="0.4mm" x="4.4mm" y="8.4mm" /><rect height="0.4mm" width="0.4mm" x="5.2mm" y="8.4mm" /><rect height="0.4mm" width="0.4mm" x="5.6mm" y="8.4mm" /><rect height="0.4mm" width="0.4mm" x="6.4mm" y="8.4mm" /><rect height="0.4mm" width="0.4mm" x="6.8mm" y="8.4mm" /><rect height="0.4mm" width="0.4mm" x="7.2mm" y="8.4mm" /><rect height="0.4mm" width="0.4mm" x="8mm" y="8.4mm" /><rect height="0.4mm" width="0.4mm" x="8.4mm" y="8.4mm" /><rect height="0.4mm" width="0.4mm" x="8.8mm" y="8.4mm" /><rect height="0.4mm" width="0.4mm" x="9.2mm" y="8.4mm" /><rect height="0.4mm" width="0.4mm" x="9.6mm" y="8.4mm" /><rect height="0.4mm" width="0.4mm" x="10mm" y="8.4mm" /><rect height="0.4mm" width="0.4mm" x="10.8mm" y="8.4mm" /><rect height="0.4mm" width="0.4mm" x="11.2mm" y="8.4mm" /><rect height="0.4mm" width="0.4mm" x="11.6mm" y="8.4mm" /><rect height="0.4mm" width="0.4mm" x="3.6mm" y="8.8mm" /><rect height="0.4mm" width="0.4mm" x="5.6mm" y="8.8mm" /><rect height="0.4mm" width="0.4mm" x="6.8mm" y="8.8mm" /><rect height="0.4mm" width="0.4mm" x="8mm" y="8.8mm" /><rect height="0.4mm" width="0.4mm" x="8.4mm" y="8.8mm" /><rect height="0.4mm" width="0.4mm" x="10mm" y="8.8mm" /><rect height="0.4mm" width="0.4mm" x="10.4mm" y="8.8mm" /><rect height="0.4mm" width="0.4mm" x="10.8mm" y="8.8mm" /><rect height="0.4mm" width="0.4mm" x="11.2mm" y="8.8mm" /><rect height="0.4mm" width="0.4mm" x="11.6mm" y="8.8mm" /><rect height="0.4mm" width="0.4mm" x="0.4mm" y="9.2mm" /><rect height="0.4mm" width="0.4mm" x="0.8mm" y="9.2mm" /><rect height="0.4mm" width="0.4mm" x="1.2mm" y="9.2mm" /><rect height="0.4mm" width="0.4mm" x="1.6mm" y="9.2mm" /><rect height="0.4mm" width="0.4mm" x="2mm" y="9.2mm" /><rect height="0.4mm" width="0.4mm" x="2.4mm" y="9.2mm" /><rect height="0.4mm" width="0.4mm" x="2.8mm" y="9.2mm" /><rect height="0.4mm" width="0.4mm" x="3.6mm" y="9.2mm" /><rect height="0.4mm" width="0.4mm" x="4.8mm" y="9.2mm" /><rect height="0.4mm" width="0.4mm" x="5.2mm" y="9.2mm" /><rect height="0.4mm" width="0.4mm" x="5.6mm" y="9.2mm" /><rect height="0.4mm" width="0.4mm" x="6mm" y="9.2mm" /><rect height="0.4mm" width="0.4mm" x="6.4mm" y="9.2mm" /><rect height="0.4mm" width="0.4mm" x="6.8mm" y="9.2mm" /><rect height="0.4mm" width="0.4mm" x="8mm" y="9.2mm" /><rect height="0.4mm" width="0.4mm" x="8.4mm" y="9.2mm" /><rect height="0.4mm" width="0.4mm" x="9.2mm" y="9.2mm" /><rect height="0.4mm" width="0.4mm" x="10mm" y="9.2mm" /><rect height="0.4mm" width="0.4mm" x="10.4mm" y="9.2mm" /><rect height="0.4mm" width="0.4mm" x="10.8mm" y="9.2mm" /><rect height="0.4mm" width="0.4mm" x="0.4mm" y="9.6mm" /><rect height="0.4mm" width="0.4mm" x="2.8mm" y="9.6mm" /><rect height="0.4mm" width="0.4mm" x="4mm" y="9.6mm" /><rect height="0.4mm" width="0.4mm" x="4.4mm" y="9.6mm" /><rect height="0.4mm" width="0.4mm" x="4.8mm" y="9.6mm" /><rect height="0.4mm" width="0.4mm" x="6mm" y="9.6mm" /><rect height="0.4mm" width="0.4mm" x="6.4mm" y="9.6mm" /><rect height="0.4mm" width="0.4mm" x="6.8mm" y="9.6mm" /><rect height="0.4mm" width="0.4mm" x="7.6mm" y="9.6mm" /><rect height="0.4mm" width="0.4mm" x="8.4mm" y="9.6mm" /><rect height="0.4mm" width="0.4mm" x="10mm" y="9.6mm" /><rect height="0.4mm" width="0.4mm" x="11.2mm" y="9.6mm" /><rect height="0.4mm" width="0.4mm" x="11.6mm" y="9.6mm" /><rect height="0.4mm" width="0.4mm" x="0.4mm" y="10mm" /><rect height="0.4mm" width="0.4mm" x="1.2mm" y="10mm" /><rect height="0.4mm" width="0.4mm" x="1.6mm" y="10mm" /><rect height="0.4mm" width="0.4mm" x="2mm" y="10mm" /><rect height="0.4mm" width="0.4mm" x="2.8mm" y="10mm" /><rect height="0.4mm" width="0.4mm" x="3.6mm" y="10mm" /><rect height="0.4mm" width="0.4mm" x="4mm" y="10mm" /><rect height="0.4mm" width="0.4mm" x="4.4mm" y="10mm" /><rect height="0.4mm" width="0.4mm" x="4.8mm" y="10mm" /><rect height="0.4mm" width="0.4mm" x="6.4mm" y="10mm" /><rect height="0.4mm" width="0.4mm" x="7.2mm" y="10mm" /><rect height="0.4mm" width="0.4mm" x="7.6mm" y="10mm" /><rect height="0.4mm" width="0.4mm" x="8.4mm" y="10mm" /><rect height="0.4mm" width="0.4mm" x="8.8mm" y="10mm" /><rect height="0.4mm" width="0.4mm" x="9.2mm" y="10mm" /><rect height="0.4mm" width="0.4mm" x="9.6mm" y="10mm" /><rect height="0.4mm" width="0.4mm" x="10mm" y="10mm" /><rect height="0.4mm" width="0.4mm" x="10.8mm" y="10mm" /><rect height="0.4mm" width="0.4mm" x="11.2mm" y="10mm" /><rect height="0.4mm" width="0.4mm" x="11.6mm" y="10mm" /><rect height="0.4mm" width="0.4mm" x="0.4mm" y="10.4mm" /><rect height="0.4mm" width="0.4mm" x="1.2mm" y="10.4mm" /><rect height="0.4mm" width="0.4mm" x="1.6mm" y="10.4mm" /><rect height="0.4mm" width="0.4mm" x="2mm" y="10.4mm" /><rect height="0.4mm" width="0.4mm" x="2.8mm" y="10.4mm" /><rect height="0.4mm" width="0.4mm" x="3.6mm" y="10.4mm" /><rect height="0.4mm" width="0.4mm" x="4mm" y="10.4mm" /><rect height="0.4mm" width="0.4mm" x="4.4mm" y="10.4mm" /><rect height="0.4mm" width="0.4mm" x="5.2mm" y="10.4mm" /><rect height="0.4mm" width="0.4mm" x="5.6mm" y="10.4mm" /><rect height="0.4mm" width="0.4mm" x="6.8mm" y="10.4mm" /><rect height="0.4mm" width="0.4mm" x="7.2mm" y="10.4mm" /><rect height="0.4mm" width="0.4mm" x="7.6mm" y="10.4mm" /><rect height="0.4mm" width="0.4mm" x="8mm" y="10.4mm" /><rect height="0.4mm" width="0.4mm" x="10.4mm" y="10.4mm" /><rect height="0.4mm" width="0.4mm" x="10.8mm" y="10.4mm" /><rect height="0.4mm" width="0.4mm" x="11.2mm" y="10.4mm" /><rect height="0.4mm" width="0.4mm" x="11.6mm" y="10.4mm" /><rect height="0.4mm" width="0.4mm" x="0.4mm" y="10.8mm" /><rect height="0.4mm" width="0.4mm" x="1.2mm" y="10.8mm" /><rect height="0.4mm" width="0.4mm" x="1.6mm" y="10.8mm" /><rect height="0.4mm" width="0.4mm" x="2mm" y="10.8mm" /><rect height="0.4mm" width="0.4mm" x="2.8mm" y="10.8mm" /><rect height="0.4mm" width="0.4mm" x="3.6mm" y="10.8mm" /><rect height="0.4mm" width="0.4mm" x="4mm" y="10.8mm" /><rect height="0.4mm" width="0.4mm" x="4.4mm" y="10.8mm" /><rect height="0.4mm" width="0.4mm" x="5.6mm" y="10.8mm" /><rect height="0.4mm" width="0.4mm" x="6mm" y="10.8mm" /><rect height="0.4mm" width="0.4mm" x="6.4mm" y="10.8mm" /><rect height="0.4mm" width="0.4mm" x="7.2mm" y="10.8mm" /><rect height="0.4mm" width="0.4mm" x="8mm" y="10.8mm" /><rect height="0.4mm" width="0.4mm" x="8.4mm" y="10.8mm" /><rect height="0.4mm" width="0.4mm" x="9.2mm" y="10.8mm" /><rect height="0.4mm" width="0.4mm" x="10mm" y="10.8mm" /><rect height="0.4mm" width="0.4mm" x="10.4mm" y="10.8mm" /><rect height="0.4mm" width="0.4mm" x="10.8mm" y="10.8mm" /><rect height="0.4mm" width="0.4mm" x="11.2mm" y="10.8mm" /><rect height="0.4mm" width="0.4mm" x="0.4mm" y="11.2mm" /><rect height="0.4mm" width="0.4mm" x="2.8mm" y="11.2mm" /><rect height="0.4mm" width="0.4mm" x="3.6mm" y="11.2mm" /><rect height="0.4mm" width="0.4mm" x="5.2mm" y="11.2mm" /><rect height="0.4mm" width="0.4mm" x="5.6mm" y="11.2mm" /><rect height="0.4mm" width="0.4mm" x="6.4mm" y="11.2mm" /><rect height="0.4mm" width="0.4mm" x="6.8mm" y="11.2mm" /><rect height="0.4mm" width="0.4mm" x="7.6mm" y="11.2mm" /><rect height="0.4mm" width="0.4mm" x="8.4mm" y="11.2mm" /><rect height="0.4mm" width="0.4mm" x="9.6mm" y="11.2mm" /><rect height="0.4mm" width="0.4mm" x="11.2mm" y="11.2mm" /><rect height="0.4mm" width="0.4mm" x="0.4mm" y="11.6mm" /><rect height="0.4mm" width="0.4mm" x="0.8mm" y="11.6mm" /><rect height="0.4mm" width="0.4mm" x="1.2mm" y="11.6mm" /><rect height="0.4mm" width="0.4mm" x="1.6mm" y="11.6mm" /><rect height="0.4mm" width="0.4mm" x="2mm" y="11.6mm" /><rect height="0.4mm" width="0.4mm" x="2.4mm" y="11.6mm" /><rect height="0.4mm" width="0.4mm" x="2.8mm" y="11.6mm" /><rect height="0.4mm" width="0.4mm" x="3.6mm" y="11.6mm" /><rect height="0.4mm" width="0.4mm" x="4mm" y="11.6mm" /><rect height="0.4mm" width="0.4mm" x="5.2mm" y="11.6mm" /><rect height="0.4mm" width="0.4mm" x="6mm" y="11.6mm" /><rect height="0.4mm" width="0.4mm" x="6.4mm" y="11.6mm" /><rect height="0.4mm" width="0.4mm" x="7.2mm" y="11.6mm" /><rect height="0.4mm" width="0.4mm" x="8.8mm" y="11.6mm" /><rect height="0.4mm" width="0.4mm" x="9.6mm" y="11.6mm" /><rect height="0.4mm" width="0.4mm" x="10.8mm" y="11.6mm" /></svg>